<svg class="svg-icon" style="width: 1em; height: 1em;vertical-align: middle;fill: currentColor;overflow: hidden;" viewBox="0 0 1024 1024" version="1.1" xmlns="http://www.w3.org/2000/svg"><path d="M327.296 857.872c-9.711-8.928-10-23.664-0.608-32.896l335.104-330.352c9.392-9.232 24.88-9.504 34.609-0.56 9.728 8.928 10 23.648 0.608 32.896l-335.088 330.336c-9.408 9.248-24.896 9.488-34.624 0.576z"  /><path d="M325.776 168.288c8.496-10.192 23.056-11.008 32.496-1.84l338.080 326.8c9.44 9.168 10.208 24.88 1.696 35.056-8.512 10.192-23.056 11.008-32.496 1.84l-338.080-326.784c-9.424-9.184-10.192-24.896-1.696-35.072z"  /></svg>